<svg xmlns="http://www.w3.org/2000/svg" viewBox="0 0 800 800">
  <!-- Background -->
  <rect width="800" height="800" fill="#1f2937" />
  
  <!-- Geometric Pattern Grid -->
  <g fill="none" stroke="#10b981" stroke-width="1.5" opacity="0.15">
    <!-- Horizontal and Vertical Grid Lines -->
    <g>
      <path d="M0,100 L800,100" />
      <path d="M0,200 L800,200" />
      <path d="M0,300 L800,300" />
      <path d="M0,400 L800,400" />
      <path d="M0,500 L800,500" />
      <path d="M0,600 L800,600" />
      <path d="M0,700 L800,700" />
      
      <path d="M100,0 L100,800" />
      <path d="M200,0 L200,800" />
      <path d="M300,0 L300,800" />
      <path d="M400,0 L400,800" />
      <path d="M500,0 L500,800" />
      <path d="M600,0 L600,800" />
      <path d="M700,0 L700,800" />
    </g>
    
    <!-- Diagonal Grid Lines -->
    <g>
      <path d="M0,0 L800,800" />
      <path d="M0,800 L800,0" />
      
      <path d="M0,400 L400,0" />
      <path d="M400,0 L800,400" />
      <path d="M800,400 L400,800" />
      <path d="M400,800 L0,400" />
    </g>
    
    <!-- Stars and Islamic Geometric Elements -->
    <g fill="#10b981" opacity="0.2" stroke="#f59e0b" stroke-width="0.5">
      <!-- Eight-pointed star at center -->
      <path d="M400,350 L420,400 L470,420 L420,440 L400,490 L380,440 L330,420 L380,400 Z" />
      
      <!-- Eight-pointed stars in corners -->
      <path d="M150,150 L170,200 L220,220 L170,240 L150,290 L130,240 L80,220 L130,200 Z" />
      <path d="M650,150 L670,200 L720,220 L670,240 L650,290 L630,240 L580,220 L630,200 Z" />
      <path d="M150,650 L170,700 L220,720 L170,740 L150,790 L130,740 L80,720 L130,700 Z" />
      <path d="M650,650 L670,700 L720,720 L670,740 L650,790 L630,740 L580,720 L630,700 Z" />
    </g>
    
    <!-- Circles for decorative elements -->
    <g fill="none" stroke="#f59e0b" stroke-width="1" opacity="0.15">
      <circle cx="400" cy="400" r="100" />
      <circle cx="400" cy="400" r="150" />
      <circle cx="400" cy="400" r="200" />
      <circle cx="400" cy="400" r="250" />
      <circle cx="400" cy="400" r="300" />
    </g>
    
    <!-- Central Islamic flower pattern -->
    <g fill="#f59e0b" opacity="0.1">
      <path d="M400,300 Q430,350 400,400 Q370,350 400,300 Z" />
      <path d="M400,300 Q450,330 500,300 Q450,270 400,300 Z" />
      <path d="M500,300 Q450,330 400,400 Q450,370 500,300 Z" />
      <path d="M500,300 Q450,270 400,400 Q450,370 500,300 Z" />
      
      <path d="M400,300 Q350,330 300,300 Q350,270 400,300 Z" />
      <path d="M300,300 Q350,330 400,400 Q350,370 300,300 Z" />
      <path d="M300,300 Q350,270 400,400 Q350,370 300,300 Z" />
      
      <path d="M400,500 Q430,450 400,400 Q370,450 400,500 Z" />
      <path d="M400,500 Q450,470 500,500 Q450,530 400,500 Z" />
      <path d="M500,500 Q450,470 400,400 Q450,430 500,500 Z" />
      <path d="M500,500 Q450,530 400,400 Q450,430 500,500 Z" />
      
      <path d="M400,500 Q350,470 300,500 Q350,530 400,500 Z" />
      <path d="M300,500 Q350,470 400,400 Q350,430 300,500 Z" />
      <path d="M300,500 Q350,530 400,400 Q350,430 300,500 Z" />
    </g>
  </g>
  
  <!-- Small decorative crescent moon symbols -->
  <g fill="#f59e0b" opacity="0.5">
    <path d="M750,50 A20,20 0 0,1 750,90 A15,15 0 0,0 750,50 Z" />
    <path d="M50,750 A20,20 0 0,1 50,790 A15,15 0 0,0 50,750 Z" />
  </g>
  
  <!-- Arabic-inspired calligraphy symbol (stylized Bismillah) -->
  <g transform="translate(400, 50) scale(0.5)" opacity="0.3" fill="#10b981">
    <path d="M0,0 C10,-20 20,-10 20,0 S10,20 0,0 Z M30,0 C40,-20 50,-10 50,0 S40,20 30,0 Z M-30,0 C-40,-20 -50,-10 -50,0 S-40,20 -30,0 Z" />
    <path d="M-70,0 C-60,-10 -50,10 -40,0 C-30,-10 -20,10 -10,0 C0,-10 10,10 20,0 C30,-10 40,10 50,0 C60,-10 70,10 80,0" stroke="#10b981" stroke-width="2" fill="none" />
  </g>
  
  <!-- Mosque dome silhouette -->
  <g transform="translate(400, 650)" opacity="0.15">
    <path d="M-100,0 L100,0 C80,-60 -80,-60 -100,0 Z" fill="#10b981" />
    <rect x="-80" y="0" width="160" height="40" fill="#10b981" />
    <path d="M-30,40 L-30,70 L30,70 L30,40" fill="none" stroke="#10b981" stroke-width="2" />
    
    <!-- Minaret -->
    <path d="M-120,-10 L-120,100 L-100,100 L-100,-10" fill="#10b981" />
    <path d="M-130,100 L-90,100" stroke="#10b981" stroke-width="2" fill="none" />
    <path d="M-120,-30 L-110,-10 L-130,-10 Z" fill="#10b981" />
    
    <!-- Minaret -->
    <path d="M120,-10 L120,100 L100,100 L100,-10" fill="#10b981" />
    <path d="M130,100 L90,100" stroke="#10b981" stroke-width="2" fill="none" />
    <path d="M120,-30 L110,-10 L130,-10 Z" fill="#10b981" />
  </g>
</svg>
